<?xml version="1.0" encoding="UTF-8"?>
<svg id="_图层_1" data-name="图层 1" xmlns="http://www.w3.org/2000/svg" viewBox="0 0 640 610.04">
  <defs>
    <style>
      .cls-1 {
        fill: #f7e9df;
      }

      .cls-2 {
        fill: #f8b8b1;
      }
    </style>
  </defs>
  <g>
    <path class="cls-2" d="M640,283.5l-53.17-23.12,38.18-43.63s-83.55-129.63-218.48-4.58C498.99,53.12,354.21,0,354.21,0l-34.21,46.81L285.79,0s-144.79,53.12-52.33,212.17c-134.93-125.06-218.48,4.58-218.48,4.58l38.18,43.63L0,283.5s15.97,121.34,143.47,108.7c-100.04,80.05-26.68,178.01-26.68,178.01l54.19-20.61,3.17,57.89s106.76,24.41,145.84-77.8c39.08,102.22,145.84,77.8,145.84,77.8l3.17-57.89,54.19,20.61s73.36-97.96-26.68-178.01c127.5,12.64,143.47-108.7,143.47-108.7ZM320,320.29h0,0Z"/>
    <path class="cls-1" d="M382.12,300.84l-10.32-4.49,7.41-8.47s-16.22-25.16-42.41-.89c17.95-30.88-10.16-41.19-10.16-41.19l-6.64,9.09-6.64-9.09s-28.11,10.31-10.16,41.19c-26.2-24.28-42.41.89-42.41.89l7.41,8.47-10.32,4.49s3.1,23.55,27.85,21.1c-19.42,15.54-5.18,34.56-5.18,34.56l10.52-4,.62,11.24s20.73,4.74,28.31-15.1c7.59,19.84,28.31,15.1,28.31,15.1l.62-11.24,10.52,4s14.24-19.02-5.18-34.56c24.75,2.45,27.85-21.1,27.85-21.1ZM320,307.98h0Z"/>
    <path class="cls-1" d="M53.17,260.38c86.15,12.93,173.16,28.52,258.54,45.85,0,0,8.29,1.75,8.29,1.75l-8.39-1.22c-86.11-13.26-173.14-28.72-258.45-46.38h0Z"/>
    <path class="cls-1" d="M320,307.98c-2.4-83.9-2.34-169.09-.27-253.01,0,0,.27-8.16.27-8.16l.27,8.16c2.07,83.92,2.13,169.1-.27,253.01h0Z"/>
    <path class="cls-1" d="M320,307.98c85.3-17.65,172.34-33.12,258.45-46.38,0,0,8.39-1.22,8.39-1.22,0,0-8.29,1.75-8.29,1.75-85.38,17.33-172.39,32.92-258.54,45.85h0Z"/>
    <path class="cls-1" d="M320,307.98c49.91,76.37,98.46,155.2,144.58,233.92,0,0,4.43,7.69,4.43,7.69l-4.88-7.41c-49.64-76.56-98.29-155.32-144.13-234.21h0Z"/>
    <path class="cls-1" d="M170.99,549.6c45.86-74.98,94.52-149.73,144.13-222.29,0,0,4.88-7.02,4.88-7.02,0,0-4.43,7.31-4.43,7.31-46.15,74.81-94.7,149.63-144.58,222h0Z"/>
  </g>
  <g>
    <path class="cls-1" d="M233.47,212.17c15.24,14.76,30.27,31,44.58,46.72,14.2,15.84,28.81,32.41,41.95,49.09-15.25-14.75-30.27-30.99-44.58-46.72-14.19-15.85-28.8-32.42-41.95-49.09h0Z"/>
    <path class="cls-1" d="M143.47,392.2c57.53-30.13,116.9-58.48,176.53-84.22-57.52,30.15-116.91,58.46-176.53,84.22h0Z"/>
    <path class="cls-1" d="M320,529.69c-2.43-73.57-2.44-148.13,0-221.71,2.45,73.57,2.43,148.13,0,221.71h0Z"/>
    <path class="cls-1" d="M406.53,212.17c-13.14,16.66-27.76,33.25-41.95,49.09-14.32,15.73-29.32,31.95-44.58,46.72,13.13-16.67,27.76-33.26,41.95-49.09,14.32-15.73,29.33-31.94,44.58-46.72h0Z"/>
    <path class="cls-1" d="M496.53,392.2c-59.62-25.76-119-54.07-176.53-84.22,59.63,25.74,119,54.08,176.53,84.22h0Z"/>
  </g>
</svg>